<svg id="Ebene_1" data-name="Ebene 1" xmlns="http://www.w3.org/2000/svg" viewBox="0 0 2250.709 1683.78"><defs><style>.cls-1{fill:#e6e6e6;}</style></defs><title>PingPongLedWall</title><circle class="cls-1" cx="2202.52" cy="1635.591" r="48.189"/><circle class="cls-1" cx="2089.134" cy="1635.591" r="48.189"/><circle class="cls-1" cx="1975.748" cy="1635.591" r="48.189"/><circle class="cls-1" cx="1862.362" cy="1635.591" r="48.189"/><circle class="cls-1" cx="1748.976" cy="1635.591" r="48.189"/><circle class="cls-1" cx="1635.591" cy="1635.591" r="48.189"/><circle class="cls-1" cx="1522.205" cy="1635.591" r="48.189"/><circle class="cls-1" cx="1408.819" cy="1635.591" r="48.189"/><circle class="cls-1" cx="1295.433" cy="1635.591" r="48.189"/><circle class="cls-1" cx="1182.047" cy="1635.591" r="48.189"/><circle class="cls-1" cx="1068.661" cy="1635.591" r="48.189"/><circle class="cls-1" cx="955.276" cy="1635.591" r="48.189"/><circle class="cls-1" cx="841.89" cy="1635.591" r="48.189"/><circle class="cls-1" cx="728.504" cy="1635.591" r="48.189"/><circle class="cls-1" cx="615.118" cy="1635.591" r="48.189"/><circle class="cls-1" cx="501.732" cy="1635.591" r="48.189"/><circle class="cls-1" cx="388.346" cy="1635.591" r="48.189"/><circle class="cls-1" cx="274.961" cy="1635.591" r="48.189"/><circle class="cls-1" cx="161.575" cy="1635.591" r="48.189"/><circle class="cls-1" cx="48.189" cy="1635.591" r="48.189"/><circle class="cls-1" cx="2202.52" cy="1522.205" r="48.189"/><circle class="cls-1" cx="2089.134" cy="1522.205" r="48.189"/><circle class="cls-1" cx="1975.748" cy="1522.205" r="48.189"/><circle class="cls-1" cx="1862.362" cy="1522.205" r="48.189"/><circle class="cls-1" cx="1748.976" cy="1522.205" r="48.189"/><circle class="cls-1" cx="1635.591" cy="1522.205" r="48.189"/><circle class="cls-1" cx="1522.205" cy="1522.205" r="48.189"/><circle class="cls-1" cx="1408.819" cy="1522.205" r="48.189"/><circle class="cls-1" cx="1295.433" cy="1522.205" r="48.189"/><circle class="cls-1" cx="1182.047" cy="1522.205" r="48.189"/><circle class="cls-1" cx="1068.661" cy="1522.205" r="48.189"/><circle class="cls-1" cx="955.276" cy="1522.205" r="48.189"/><circle class="cls-1" cx="841.89" cy="1522.205" r="48.189"/><circle class="cls-1" cx="728.504" cy="1522.205" r="48.189"/><circle class="cls-1" cx="615.118" cy="1522.205" r="48.189"/><circle class="cls-1" cx="501.732" cy="1522.205" r="48.189"/><circle class="cls-1" cx="388.346" cy="1522.205" r="48.189"/><circle class="cls-1" cx="274.961" cy="1522.205" r="48.189"/><circle class="cls-1" cx="161.575" cy="1522.205" r="48.189"/><circle class="cls-1" cx="48.189" cy="1522.205" r="48.189"/><circle class="cls-1" cx="2202.52" cy="1408.819" r="48.189"/><circle class="cls-1" cx="2089.134" cy="1408.819" r="48.189"/><circle class="cls-1" cx="1975.748" cy="1408.819" r="48.189"/><circle class="cls-1" cx="1862.362" cy="1408.819" r="48.189"/><circle class="cls-1" cx="1748.976" cy="1408.819" r="48.189"/><circle class="cls-1" cx="1635.591" cy="1408.819" r="48.189"/><circle class="cls-1" cx="1522.205" cy="1408.819" r="48.189"/><circle class="cls-1" cx="1408.819" cy="1408.819" r="48.189"/><circle class="cls-1" cx="1295.433" cy="1408.819" r="48.189"/><circle class="cls-1" cx="1182.047" cy="1408.819" r="48.189"/><circle class="cls-1" cx="1068.661" cy="1408.819" r="48.189"/><circle class="cls-1" cx="955.276" cy="1408.819" r="48.189"/><circle class="cls-1" cx="841.89" cy="1408.819" r="48.189"/><circle class="cls-1" cx="728.504" cy="1408.819" r="48.189"/><circle class="cls-1" cx="615.118" cy="1408.819" r="48.189"/><circle class="cls-1" cx="501.732" cy="1408.819" r="48.189"/><circle class="cls-1" cx="388.346" cy="1408.819" r="48.189"/><circle class="cls-1" cx="274.961" cy="1408.819" r="48.189"/><circle class="cls-1" cx="161.575" cy="1408.819" r="48.189"/><circle class="cls-1" cx="48.189" cy="1408.819" r="48.189"/><circle class="cls-1" cx="2202.52" cy="1295.433" r="48.189"/><circle class="cls-1" cx="2089.134" cy="1295.433" r="48.189"/><circle class="cls-1" cx="1975.748" cy="1295.433" r="48.189"/><circle class="cls-1" cx="1862.362" cy="1295.433" r="48.189"/><circle class="cls-1" cx="1748.976" cy="1295.433" r="48.189"/><circle class="cls-1" cx="1635.591" cy="1295.433" r="48.189"/><circle class="cls-1" cx="1522.205" cy="1295.433" r="48.189"/><circle class="cls-1" cx="1408.819" cy="1295.433" r="48.189"/><circle class="cls-1" cx="1295.433" cy="1295.433" r="48.189"/><circle class="cls-1" cx="1182.047" cy="1295.433" r="48.189"/><circle class="cls-1" cx="1068.661" cy="1295.433" r="48.189"/><circle class="cls-1" cx="955.276" cy="1295.433" r="48.189"/><circle class="cls-1" cx="841.89" cy="1295.433" r="48.189"/><circle class="cls-1" cx="728.504" cy="1295.433" r="48.189"/><circle class="cls-1" cx="615.118" cy="1295.433" r="48.189"/><circle class="cls-1" cx="501.732" cy="1295.433" r="48.189"/><circle class="cls-1" cx="388.346" cy="1295.433" r="48.189"/><circle class="cls-1" cx="274.961" cy="1295.433" r="48.189"/><circle class="cls-1" cx="161.575" cy="1295.433" r="48.189"/><circle class="cls-1" cx="48.189" cy="1295.433" r="48.189"/><circle class="cls-1" cx="2202.52" cy="1182.047" r="48.189"/><circle class="cls-1" cx="2089.134" cy="1182.047" r="48.189"/><circle class="cls-1" cx="1975.748" cy="1182.047" r="48.189"/><circle class="cls-1" cx="1862.362" cy="1182.047" r="48.189"/><circle class="cls-1" cx="1748.976" cy="1182.047" r="48.189"/><circle class="cls-1" cx="1635.591" cy="1182.047" r="48.189"/><circle class="cls-1" cx="1522.205" cy="1182.047" r="48.189"/><circle class="cls-1" cx="1408.819" cy="1182.047" r="48.189"/><circle class="cls-1" cx="1295.433" cy="1182.047" r="48.189"/><circle class="cls-1" cx="1182.047" cy="1182.047" r="48.189"/><circle class="cls-1" cx="1068.661" cy="1182.047" r="48.189"/><circle class="cls-1" cx="955.276" cy="1182.047" r="48.189"/><circle class="cls-1" cx="841.89" cy="1182.047" r="48.189"/><circle class="cls-1" cx="728.504" cy="1182.047" r="48.189"/><circle class="cls-1" cx="615.118" cy="1182.047" r="48.189"/><circle class="cls-1" cx="501.732" cy="1182.047" r="48.189"/><circle class="cls-1" cx="388.346" cy="1182.047" r="48.189"/><circle class="cls-1" cx="274.961" cy="1182.047" r="48.189"/><circle class="cls-1" cx="161.575" cy="1182.047" r="48.189"/><circle class="cls-1" cx="48.189" cy="1182.047" r="48.189"/><circle class="cls-1" cx="2202.52" cy="1068.661" r="48.189"/><circle class="cls-1" cx="2089.134" cy="1068.661" r="48.189"/><circle class="cls-1" cx="1975.748" cy="1068.661" r="48.189"/><circle class="cls-1" cx="1862.362" cy="1068.661" r="48.189"/><circle class="cls-1" cx="1748.976" cy="1068.661" r="48.189"/><circle class="cls-1" cx="1635.591" cy="1068.661" r="48.189"/><circle class="cls-1" cx="1522.205" cy="1068.661" r="48.189"/><circle class="cls-1" cx="1408.819" cy="1068.661" r="48.189"/><circle class="cls-1" cx="1295.433" cy="1068.661" r="48.189"/><circle class="cls-1" cx="1182.047" cy="1068.661" r="48.189"/><circle class="cls-1" cx="1068.661" cy="1068.661" r="48.189"/><circle class="cls-1" cx="955.276" cy="1068.661" r="48.189"/><circle class="cls-1" cx="841.89" cy="1068.661" r="48.189"/><circle class="cls-1" cx="728.504" cy="1068.661" r="48.189"/><circle class="cls-1" cx="615.118" cy="1068.661" r="48.189"/><circle class="cls-1" cx="501.732" cy="1068.661" r="48.189"/><circle class="cls-1" cx="388.346" cy="1068.661" r="48.189"/><circle class="cls-1" cx="274.961" cy="1068.661" r="48.189"/><circle class="cls-1" cx="161.575" cy="1068.661" r="48.189"/><circle class="cls-1" cx="48.189" cy="1068.661" r="48.189"/><circle class="cls-1" cx="2202.52" cy="955.276" r="48.189"/><circle class="cls-1" cx="2089.134" cy="955.276" r="48.189"/><circle class="cls-1" cx="1975.748" cy="955.276" r="48.189"/><circle class="cls-1" cx="1862.362" cy="955.276" r="48.189"/><circle class="cls-1" cx="1748.976" cy="955.276" r="48.189"/><circle class="cls-1" cx="1635.591" cy="955.276" r="48.189"/><circle class="cls-1" cx="1522.205" cy="955.276" r="48.189"/><circle class="cls-1" cx="1408.819" cy="955.276" r="48.189"/><circle class="cls-1" cx="1295.433" cy="955.276" r="48.189"/><circle class="cls-1" cx="1182.047" cy="955.276" r="48.189"/><circle class="cls-1" cx="1068.661" cy="955.276" r="48.189"/><circle class="cls-1" cx="955.276" cy="955.276" r="48.189"/><circle class="cls-1" cx="841.89" cy="955.276" r="48.189"/><circle class="cls-1" cx="728.504" cy="955.276" r="48.189"/><circle class="cls-1" cx="615.118" cy="955.276" r="48.189"/><circle class="cls-1" cx="501.732" cy="955.276" r="48.189"/><circle class="cls-1" cx="388.346" cy="955.276" r="48.189"/><circle class="cls-1" cx="274.961" cy="955.276" r="48.189"/><circle class="cls-1" cx="161.575" cy="955.276" r="48.189"/><circle class="cls-1" cx="48.189" cy="955.276" r="48.189"/><circle class="cls-1" cx="2202.52" cy="841.89" r="48.189"/><circle class="cls-1" cx="2089.134" cy="841.89" r="48.189"/><circle class="cls-1" cx="1975.748" cy="841.89" r="48.189"/><circle class="cls-1" cx="1862.362" cy="841.89" r="48.189"/><circle class="cls-1" cx="1748.976" cy="841.89" r="48.189"/><circle class="cls-1" cx="1635.591" cy="841.89" r="48.189"/><circle class="cls-1" cx="1522.205" cy="841.89" r="48.189"/><circle class="cls-1" cx="1408.819" cy="841.89" r="48.189"/><circle class="cls-1" cx="1295.433" cy="841.89" r="48.189"/><circle class="cls-1" cx="1182.047" cy="841.89" r="48.189"/><circle class="cls-1" cx="1068.661" cy="841.89" r="48.189"/><circle class="cls-1" cx="955.276" cy="841.89" r="48.189"/><circle class="cls-1" cx="841.89" cy="841.89" r="48.189"/><circle class="cls-1" cx="728.504" cy="841.89" r="48.189"/><circle class="cls-1" cx="615.118" cy="841.89" r="48.189"/><circle class="cls-1" cx="501.732" cy="841.89" r="48.189"/><circle class="cls-1" cx="388.346" cy="841.89" r="48.189"/><circle class="cls-1" cx="274.961" cy="841.89" r="48.189"/><circle class="cls-1" cx="161.575" cy="841.89" r="48.189"/><circle class="cls-1" cx="48.189" cy="841.89" r="48.189"/><circle class="cls-1" cx="2202.52" cy="728.504" r="48.189"/><circle class="cls-1" cx="2089.134" cy="728.504" r="48.189"/><circle class="cls-1" cx="1975.748" cy="728.504" r="48.189"/><circle class="cls-1" cx="1862.362" cy="728.504" r="48.189"/><circle class="cls-1" cx="1748.976" cy="728.504" r="48.189"/><circle class="cls-1" cx="1635.591" cy="728.504" r="48.189"/><circle class="cls-1" cx="1522.205" cy="728.504" r="48.189"/><circle class="cls-1" cx="1408.819" cy="728.504" r="48.189"/><circle class="cls-1" cx="1295.433" cy="728.504" r="48.189"/><circle class="cls-1" cx="1182.047" cy="728.504" r="48.189"/><circle class="cls-1" cx="1068.661" cy="728.504" r="48.189"/><circle class="cls-1" cx="955.276" cy="728.504" r="48.189"/><circle class="cls-1" cx="841.89" cy="728.504" r="48.189"/><circle class="cls-1" cx="728.504" cy="728.504" r="48.189"/><circle class="cls-1" cx="615.118" cy="728.504" r="48.189"/><circle class="cls-1" cx="501.732" cy="728.504" r="48.189"/><circle class="cls-1" cx="388.346" cy="728.504" r="48.189"/><circle class="cls-1" cx="274.961" cy="728.504" r="48.189"/><circle class="cls-1" cx="161.575" cy="728.504" r="48.189"/><circle class="cls-1" cx="48.189" cy="728.504" r="48.189"/><circle class="cls-1" cx="2202.52" cy="615.118" r="48.189"/><circle class="cls-1" cx="2089.134" cy="615.118" r="48.189"/><circle class="cls-1" cx="1975.748" cy="615.118" r="48.189"/><circle class="cls-1" cx="1862.362" cy="615.118" r="48.189"/><circle class="cls-1" cx="1748.976" cy="615.118" r="48.189"/><circle class="cls-1" cx="1635.591" cy="615.118" r="48.189"/><circle class="cls-1" cx="1522.205" cy="615.118" r="48.189"/><circle class="cls-1" cx="1408.819" cy="615.118" r="48.189"/><circle class="cls-1" cx="1295.433" cy="615.118" r="48.189"/><circle class="cls-1" cx="1182.047" cy="615.118" r="48.189"/><circle class="cls-1" cx="1068.661" cy="615.118" r="48.189"/><circle class="cls-1" cx="955.276" cy="615.118" r="48.189"/><circle class="cls-1" cx="841.89" cy="615.118" r="48.189"/><circle class="cls-1" cx="728.504" cy="615.118" r="48.189"/><circle class="cls-1" cx="615.118" cy="615.118" r="48.189"/><circle class="cls-1" cx="501.732" cy="615.118" r="48.189"/><circle class="cls-1" cx="388.346" cy="615.118" r="48.189"/><circle class="cls-1" cx="274.961" cy="615.118" r="48.189"/><circle class="cls-1" cx="161.575" cy="615.118" r="48.189"/><circle class="cls-1" cx="48.189" cy="615.118" r="48.189"/><circle class="cls-1" cx="2202.52" cy="501.732" r="48.189"/><circle class="cls-1" cx="2089.134" cy="501.732" r="48.189"/><circle class="cls-1" cx="1975.748" cy="501.732" r="48.189"/><circle class="cls-1" cx="1862.362" cy="501.732" r="48.189"/><circle class="cls-1" cx="1748.976" cy="501.732" r="48.189"/><circle class="cls-1" cx="1635.591" cy="501.732" r="48.189"/><circle class="cls-1" cx="1522.205" cy="501.732" r="48.189"/><circle class="cls-1" cx="1408.819" cy="501.732" r="48.189"/><circle class="cls-1" cx="1295.433" cy="501.732" r="48.189"/><circle class="cls-1" cx="1182.047" cy="501.732" r="48.189"/><circle class="cls-1" cx="1068.661" cy="501.732" r="48.189"/><circle class="cls-1" cx="955.276" cy="501.732" r="48.189"/><circle class="cls-1" cx="841.89" cy="501.732" r="48.189"/><circle class="cls-1" cx="728.504" cy="501.732" r="48.189"/><circle class="cls-1" cx="615.118" cy="501.732" r="48.189"/><circle class="cls-1" cx="501.732" cy="501.732" r="48.189"/><circle class="cls-1" cx="388.346" cy="501.732" r="48.189"/><circle class="cls-1" cx="274.961" cy="501.732" r="48.189"/><circle class="cls-1" cx="161.575" cy="501.732" r="48.189"/><circle class="cls-1" cx="48.189" cy="501.732" r="48.189"/><circle class="cls-1" cx="2202.52" cy="388.346" r="48.189"/><circle class="cls-1" cx="2089.134" cy="388.346" r="48.189"/><circle class="cls-1" cx="1975.748" cy="388.346" r="48.189"/><circle class="cls-1" cx="1862.362" cy="388.346" r="48.189"/><circle class="cls-1" cx="1748.976" cy="388.346" r="48.189"/><circle class="cls-1" cx="1635.591" cy="388.346" r="48.189"/><circle class="cls-1" cx="1522.205" cy="388.346" r="48.189"/><circle class="cls-1" cx="1408.819" cy="388.346" r="48.189"/><circle class="cls-1" cx="1295.433" cy="388.346" r="48.189"/><circle class="cls-1" cx="1182.047" cy="388.346" r="48.189"/><circle class="cls-1" cx="1068.661" cy="388.346" r="48.189"/><circle class="cls-1" cx="955.276" cy="388.346" r="48.189"/><circle class="cls-1" cx="841.89" cy="388.346" r="48.189"/><circle class="cls-1" cx="728.504" cy="388.346" r="48.189"/><circle class="cls-1" cx="615.118" cy="388.346" r="48.189"/><circle class="cls-1" cx="501.732" cy="388.346" r="48.189"/><circle class="cls-1" cx="388.346" cy="388.346" r="48.189"/><circle class="cls-1" cx="274.961" cy="388.346" r="48.189"/><circle class="cls-1" cx="161.575" cy="388.346" r="48.189"/><circle class="cls-1" cx="48.189" cy="388.346" r="48.189"/><circle class="cls-1" cx="2202.52" cy="274.961" r="48.189"/><circle class="cls-1" cx="2089.134" cy="274.961" r="48.189"/><circle class="cls-1" cx="1975.748" cy="274.961" r="48.189"/><circle class="cls-1" cx="1862.362" cy="274.961" r="48.189"/><circle class="cls-1" cx="1748.976" cy="274.961" r="48.189"/><circle class="cls-1" cx="1635.591" cy="274.961" r="48.189"/><circle class="cls-1" cx="1522.205" cy="274.961" r="48.189"/><circle class="cls-1" cx="1408.819" cy="274.961" r="48.189"/><circle class="cls-1" cx="1295.433" cy="274.961" r="48.189"/><circle class="cls-1" cx="1182.047" cy="274.961" r="48.189"/><circle class="cls-1" cx="1068.661" cy="274.961" r="48.189"/><circle class="cls-1" cx="955.276" cy="274.961" r="48.189"/><circle class="cls-1" cx="841.89" cy="274.961" r="48.189"/><circle class="cls-1" cx="728.504" cy="274.961" r="48.189"/><circle class="cls-1" cx="615.118" cy="274.961" r="48.189"/><circle class="cls-1" cx="501.732" cy="274.961" r="48.189"/><circle class="cls-1" cx="388.346" cy="274.961" r="48.189"/><circle class="cls-1" cx="274.961" cy="274.961" r="48.189"/><circle class="cls-1" cx="161.575" cy="274.961" r="48.189"/><circle class="cls-1" cx="48.189" cy="274.961" r="48.189"/><circle class="cls-1" cx="2202.52" cy="161.575" r="48.189"/><circle class="cls-1" cx="2089.134" cy="161.575" r="48.189"/><circle class="cls-1" cx="1975.748" cy="161.575" r="48.189"/><circle class="cls-1" cx="1862.362" cy="161.575" r="48.189"/><circle class="cls-1" cx="1748.976" cy="161.575" r="48.189"/><circle class="cls-1" cx="1635.591" cy="161.575" r="48.189"/><circle class="cls-1" cx="1522.205" cy="161.575" r="48.189"/><circle class="cls-1" cx="1408.819" cy="161.575" r="48.189"/><circle class="cls-1" cx="1295.433" cy="161.575" r="48.189"/><circle class="cls-1" cx="1182.047" cy="161.575" r="48.189"/><circle class="cls-1" cx="1068.661" cy="161.575" r="48.189"/><circle class="cls-1" cx="955.276" cy="161.575" r="48.189"/><circle class="cls-1" cx="841.89" cy="161.575" r="48.189"/><circle class="cls-1" cx="728.504" cy="161.575" r="48.189"/><circle class="cls-1" cx="615.118" cy="161.575" r="48.189"/><circle class="cls-1" cx="501.732" cy="161.575" r="48.189"/><circle class="cls-1" cx="388.346" cy="161.575" r="48.189"/><circle class="cls-1" cx="274.961" cy="161.575" r="48.189"/><circle class="cls-1" cx="161.575" cy="161.575" r="48.189"/><circle class="cls-1" cx="48.189" cy="161.575" r="48.189"/><circle class="cls-1" cx="2202.52" cy="48.189" r="48.189"/><circle class="cls-1" cx="2089.134" cy="48.189" r="48.189"/><circle class="cls-1" cx="1975.748" cy="48.189" r="48.189"/><circle class="cls-1" cx="1862.362" cy="48.189" r="48.189"/><circle class="cls-1" cx="1748.976" cy="48.189" r="48.189"/><circle class="cls-1" cx="1635.591" cy="48.189" r="48.189"/><circle class="cls-1" cx="1522.205" cy="48.189" r="48.189"/><circle class="cls-1" cx="1408.819" cy="48.189" r="48.189"/><circle class="cls-1" cx="1295.433" cy="48.189" r="48.189"/><circle class="cls-1" cx="1182.047" cy="48.189" r="48.189"/><circle class="cls-1" cx="1068.661" cy="48.189" r="48.189"/><circle class="cls-1" cx="955.276" cy="48.189" r="48.189"/><circle class="cls-1" cx="841.89" cy="48.189" r="48.189"/><circle class="cls-1" cx="728.504" cy="48.189" r="48.189"/><circle class="cls-1" cx="615.118" cy="48.189" r="48.189"/><circle class="cls-1" cx="501.732" cy="48.189" r="48.189"/><circle class="cls-1" cx="388.346" cy="48.189" r="48.189"/><circle class="cls-1" cx="274.961" cy="48.189" r="48.189"/><circle class="cls-1" cx="161.575" cy="48.189" r="48.189"/><circle class="cls-1" cx="48.189" cy="48.189" r="48.189"/><circle cx="2202.52" cy="1635.591" r="17.008"/><circle cx="2089.134" cy="1635.591" r="17.008"/><circle cx="1975.748" cy="1635.591" r="17.008"/><circle cx="1862.362" cy="1635.591" r="17.008"/><circle cx="1748.976" cy="1635.591" r="17.008"/><circle cx="1635.591" cy="1635.591" r="17.008"/><circle cx="1522.205" cy="1635.591" r="17.008"/><circle cx="1408.819" cy="1635.591" r="17.008"/><circle cx="1295.433" cy="1635.591" r="17.008"/><circle cx="1182.047" cy="1635.591" r="17.008"/><circle cx="1068.661" cy="1635.591" r="17.008"/><circle cx="955.276" cy="1635.591" r="17.008"/><circle cx="841.89" cy="1635.591" r="17.008"/><circle cx="728.504" cy="1635.591" r="17.008"/><circle cx="615.118" cy="1635.591" r="17.008"/><circle cx="501.732" cy="1635.591" r="17.008"/><circle cx="388.346" cy="1635.591" r="17.008"/><circle cx="274.961" cy="1635.591" r="17.008"/><circle cx="161.575" cy="1635.591" r="17.008"/><circle cx="48.189" cy="1635.591" r="17.008"/><circle cx="2202.52" cy="1522.205" r="17.008"/><circle cx="2089.134" cy="1522.205" r="17.008"/><circle cx="1975.748" cy="1522.205" r="17.008"/><circle cx="1862.362" cy="1522.205" r="17.008"/><circle cx="1748.976" cy="1522.205" r="17.008"/><circle cx="1635.591" cy="1522.205" r="17.008"/><circle cx="1522.205" cy="1522.205" r="17.008"/><circle cx="1408.819" cy="1522.205" r="17.008"/><circle cx="1295.433" cy="1522.205" r="17.008"/><circle cx="1182.047" cy="1522.205" r="17.008"/><circle cx="1068.661" cy="1522.205" r="17.008"/><circle cx="955.276" cy="1522.205" r="17.008"/><circle cx="841.89" cy="1522.205" r="17.008"/><circle cx="728.504" cy="1522.205" r="17.008"/><circle cx="615.118" cy="1522.205" r="17.008"/><circle cx="501.732" cy="1522.205" r="17.008"/><circle cx="388.346" cy="1522.205" r="17.008"/><circle cx="274.961" cy="1522.205" r="17.008"/><circle cx="161.575" cy="1522.205" r="17.008"/><circle cx="48.189" cy="1522.205" r="17.008"/><circle cx="2202.52" cy="1408.819" r="17.008"/><circle cx="2089.134" cy="1408.819" r="17.008"/><circle cx="1975.748" cy="1408.819" r="17.008"/><circle cx="1862.362" cy="1408.819" r="17.008"/><circle cx="1748.976" cy="1408.819" r="17.008"/><circle cx="1635.591" cy="1408.819" r="17.008"/><circle cx="1522.205" cy="1408.819" r="17.008"/><circle cx="1408.819" cy="1408.819" r="17.008"/><circle cx="1295.433" cy="1408.819" r="17.008"/><circle cx="1182.047" cy="1408.819" r="17.008"/><circle cx="1068.661" cy="1408.819" r="17.008"/><circle cx="955.276" cy="1408.819" r="17.008"/><circle cx="841.89" cy="1408.819" r="17.008"/><circle cx="728.504" cy="1408.819" r="17.008"/><circle cx="615.118" cy="1408.819" r="17.008"/><circle cx="501.732" cy="1408.819" r="17.008"/><circle cx="388.346" cy="1408.819" r="17.008"/><circle cx="274.961" cy="1408.819" r="17.008"/><circle cx="161.575" cy="1408.819" r="17.008"/><circle cx="48.189" cy="1408.819" r="17.008"/><circle cx="2202.52" cy="1295.433" r="17.008"/><circle cx="2089.134" cy="1295.433" r="17.008"/><circle cx="1975.748" cy="1295.433" r="17.008"/><circle cx="1862.362" cy="1295.433" r="17.008"/><circle cx="1748.976" cy="1295.433" r="17.008"/><circle cx="1635.591" cy="1295.433" r="17.008"/><circle cx="1522.205" cy="1295.433" r="17.008"/><circle cx="1408.819" cy="1295.433" r="17.008"/><circle cx="1295.433" cy="1295.433" r="17.008"/><circle cx="1182.047" cy="1295.433" r="17.008"/><circle cx="1068.661" cy="1295.433" r="17.008"/><circle cx="955.276" cy="1295.433" r="17.008"/><circle cx="841.89" cy="1295.433" r="17.008"/><circle cx="728.504" cy="1295.433" r="17.008"/><circle cx="615.118" cy="1295.433" r="17.008"/><circle cx="501.732" cy="1295.433" r="17.008"/><circle cx="388.346" cy="1295.433" r="17.008"/><circle cx="274.961" cy="1295.433" r="17.008"/><circle cx="161.575" cy="1295.433" r="17.008"/><circle cx="48.189" cy="1295.433" r="17.008"/><circle cx="2202.52" cy="1182.047" r="17.008"/><circle cx="2089.134" cy="1182.047" r="17.008"/><circle cx="1975.748" cy="1182.047" r="17.008"/><circle cx="1862.362" cy="1182.047" r="17.008"/><circle cx="1748.976" cy="1182.047" r="17.008"/><circle cx="1635.591" cy="1182.047" r="17.008"/><circle cx="1522.205" cy="1182.047" r="17.008"/><circle cx="1408.819" cy="1182.047" r="17.008"/><circle cx="1295.433" cy="1182.047" r="17.008"/><circle cx="1182.047" cy="1182.047" r="17.008"/><circle cx="1068.661" cy="1182.047" r="17.008"/><circle cx="955.276" cy="1182.047" r="17.008"/><circle cx="841.89" cy="1182.047" r="17.008"/><circle cx="728.504" cy="1182.047" r="17.008"/><circle cx="615.118" cy="1182.047" r="17.008"/><circle cx="501.732" cy="1182.047" r="17.008"/><circle cx="388.346" cy="1182.047" r="17.008"/><circle cx="274.961" cy="1182.047" r="17.008"/><circle cx="161.575" cy="1182.047" r="17.008"/><circle cx="48.189" cy="1182.047" r="17.008"/><circle cx="2202.52" cy="1068.661" r="17.008"/><circle cx="2089.134" cy="1068.661" r="17.008"/><circle cx="1975.748" cy="1068.661" r="17.008"/><circle cx="1862.362" cy="1068.661" r="17.008"/><circle cx="1748.976" cy="1068.661" r="17.008"/><circle cx="1635.591" cy="1068.661" r="17.008"/><circle cx="1522.205" cy="1068.661" r="17.008"/><circle cx="1408.819" cy="1068.661" r="17.008"/><circle cx="1295.433" cy="1068.661" r="17.008"/><circle cx="1182.047" cy="1068.661" r="17.008"/><circle cx="1068.661" cy="1068.661" r="17.008"/><circle cx="955.276" cy="1068.661" r="17.008"/><circle cx="841.89" cy="1068.661" r="17.008"/><circle cx="728.504" cy="1068.661" r="17.008"/><circle cx="615.118" cy="1068.661" r="17.008"/><circle cx="501.732" cy="1068.661" r="17.008"/><circle cx="388.346" cy="1068.661" r="17.008"/><circle cx="274.961" cy="1068.661" r="17.008"/><circle cx="161.575" cy="1068.661" r="17.008"/><circle cx="48.189" cy="1068.661" r="17.008"/><circle cx="2202.52" cy="955.276" r="17.008"/><circle cx="2089.134" cy="955.276" r="17.008"/><circle cx="1975.748" cy="955.276" r="17.008"/><circle cx="1862.362" cy="955.276" r="17.008"/><circle cx="1748.976" cy="955.276" r="17.008"/><circle cx="1635.591" cy="955.276" r="17.008"/><circle cx="1522.205" cy="955.276" r="17.008"/><circle cx="1408.819" cy="955.276" r="17.008"/><circle cx="1295.433" cy="955.276" r="17.008"/><circle cx="1182.047" cy="955.276" r="17.008"/><circle cx="1068.661" cy="955.276" r="17.008"/><circle cx="955.276" cy="955.276" r="17.008"/><circle cx="841.89" cy="955.276" r="17.008"/><circle cx="728.504" cy="955.276" r="17.008"/><circle cx="615.118" cy="955.276" r="17.008"/><circle cx="501.732" cy="955.276" r="17.008"/><circle cx="388.346" cy="955.276" r="17.008"/><circle cx="274.961" cy="955.276" r="17.008"/><circle cx="161.575" cy="955.276" r="17.008"/><circle cx="48.189" cy="955.276" r="17.008"/><circle cx="2202.52" cy="841.89" r="17.008"/><circle cx="2089.134" cy="841.89" r="17.008"/><circle cx="1975.748" cy="841.89" r="17.008"/><circle cx="1862.362" cy="841.89" r="17.008"/><circle cx="1748.976" cy="841.89" r="17.008"/><circle cx="1635.591" cy="841.89" r="17.008"/><circle cx="1522.205" cy="841.89" r="17.008"/><circle cx="1408.819" cy="841.89" r="17.008"/><circle cx="1295.433" cy="841.89" r="17.008"/><circle cx="1182.047" cy="841.89" r="17.008"/><circle cx="1068.661" cy="841.89" r="17.008"/><circle cx="955.276" cy="841.89" r="17.008"/><circle cx="841.89" cy="841.89" r="17.008"/><circle cx="728.504" cy="841.89" r="17.008"/><circle cx="615.118" cy="841.89" r="17.008"/><circle cx="501.732" cy="841.89" r="17.008"/><circle cx="388.346" cy="841.89" r="17.008"/><circle cx="274.961" cy="841.89" r="17.008"/><circle cx="161.575" cy="841.89" r="17.008"/><circle cx="48.189" cy="841.89" r="17.008"/><circle cx="2202.52" cy="728.504" r="17.008"/><circle cx="2089.134" cy="728.504" r="17.008"/><circle cx="1975.748" cy="728.504" r="17.008"/><circle cx="1862.362" cy="728.504" r="17.008"/><circle cx="1748.976" cy="728.504" r="17.008"/><circle cx="1635.591" cy="728.504" r="17.008"/><circle cx="1522.205" cy="728.504" r="17.008"/><circle cx="1408.819" cy="728.504" r="17.008"/><circle cx="1295.433" cy="728.504" r="17.008"/><circle cx="1182.047" cy="728.504" r="17.008"/><circle cx="1068.661" cy="728.504" r="17.008"/><circle cx="955.276" cy="728.504" r="17.008"/><circle cx="841.89" cy="728.504" r="17.008"/><circle cx="728.504" cy="728.504" r="17.008"/><circle cx="615.118" cy="728.504" r="17.008"/><circle cx="501.732" cy="728.504" r="17.008"/><circle cx="388.346" cy="728.504" r="17.008"/><circle cx="274.961" cy="728.504" r="17.008"/><circle cx="161.575" cy="728.504" r="17.008"/><circle cx="48.189" cy="728.504" r="17.008"/><circle cx="2202.52" cy="615.118" r="17.008"/><circle cx="2089.134" cy="615.118" r="17.008"/><circle cx="1975.748" cy="615.118" r="17.008"/><circle cx="1862.362" cy="615.118" r="17.008"/><circle cx="1748.976" cy="615.118" r="17.008"/><circle cx="1635.591" cy="615.118" r="17.008"/><circle cx="1522.205" cy="615.118" r="17.008"/><circle cx="1408.819" cy="615.118" r="17.008"/><circle cx="1295.433" cy="615.118" r="17.008"/><circle cx="1182.047" cy="615.118" r="17.008"/><circle cx="1068.661" cy="615.118" r="17.008"/><circle cx="955.276" cy="615.118" r="17.008"/><circle cx="841.89" cy="615.118" r="17.008"/><circle cx="728.504" cy="615.118" r="17.008"/><circle cx="615.118" cy="615.118" r="17.008"/><circle cx="501.732" cy="615.118" r="17.008"/><circle cx="388.346" cy="615.118" r="17.008"/><circle cx="274.961" cy="615.118" r="17.008"/><circle cx="161.575" cy="615.118" r="17.008"/><circle cx="48.189" cy="615.118" r="17.008"/><circle cx="2202.52" cy="501.732" r="17.008"/><circle cx="2089.134" cy="501.732" r="17.008"/><circle cx="1975.748" cy="501.732" r="17.008"/><circle cx="1862.362" cy="501.732" r="17.008"/><circle cx="1748.976" cy="501.732" r="17.008"/><circle cx="1635.591" cy="501.732" r="17.008"/><circle cx="1522.205" cy="501.732" r="17.008"/><circle cx="1408.819" cy="501.732" r="17.008"/><circle cx="1295.433" cy="501.732" r="17.008"/><circle cx="1182.047" cy="501.732" r="17.008"/><circle cx="1068.661" cy="501.732" r="17.008"/><circle cx="955.276" cy="501.732" r="17.008"/><circle cx="841.89" cy="501.732" r="17.008"/><circle cx="728.504" cy="501.732" r="17.008"/><circle cx="615.118" cy="501.732" r="17.008"/><circle cx="501.732" cy="501.732" r="17.008"/><circle cx="388.346" cy="501.732" r="17.008"/><circle cx="274.961" cy="501.732" r="17.008"/><circle cx="161.575" cy="501.732" r="17.008"/><circle cx="48.189" cy="501.732" r="17.008"/><circle cx="2202.52" cy="388.346" r="17.008"/><circle cx="2089.134" cy="388.346" r="17.008"/><circle cx="1975.748" cy="388.346" r="17.008"/><circle cx="1862.362" cy="388.346" r="17.008"/><circle cx="1748.976" cy="388.346" r="17.008"/><circle cx="1635.591" cy="388.346" r="17.008"/><circle cx="1522.205" cy="388.346" r="17.008"/><circle cx="1408.819" cy="388.346" r="17.008"/><circle cx="1295.433" cy="388.346" r="17.008"/><circle cx="1182.047" cy="388.346" r="17.008"/><circle cx="1068.661" cy="388.346" r="17.008"/><circle cx="955.276" cy="388.346" r="17.008"/><circle cx="841.89" cy="388.346" r="17.008"/><circle cx="728.504" cy="388.346" r="17.008"/><circle cx="615.118" cy="388.346" r="17.008"/><circle cx="501.732" cy="388.346" r="17.008"/><circle cx="388.346" cy="388.346" r="17.008"/><circle cx="274.961" cy="388.346" r="17.008"/><circle cx="161.575" cy="388.346" r="17.008"/><circle cx="48.189" cy="388.346" r="17.008"/><circle cx="2202.52" cy="274.961" r="17.008"/><circle cx="2089.134" cy="274.961" r="17.008"/><circle cx="1975.748" cy="274.961" r="17.008"/><circle cx="1862.362" cy="274.961" r="17.008"/><circle cx="1748.976" cy="274.961" r="17.008"/><circle cx="1635.591" cy="274.961" r="17.008"/><circle cx="1522.205" cy="274.961" r="17.008"/><circle cx="1408.819" cy="274.961" r="17.008"/><circle cx="1295.433" cy="274.961" r="17.008"/><circle cx="1182.047" cy="274.961" r="17.008"/><circle cx="1068.661" cy="274.961" r="17.008"/><circle cx="955.276" cy="274.961" r="17.008"/><circle cx="841.89" cy="274.961" r="17.008"/><circle cx="728.504" cy="274.961" r="17.008"/><circle cx="615.118" cy="274.961" r="17.008"/><circle cx="501.732" cy="274.961" r="17.008"/><circle cx="388.346" cy="274.961" r="17.008"/><circle cx="274.961" cy="274.961" r="17.008"/><circle cx="161.575" cy="274.961" r="17.008"/><circle cx="48.189" cy="274.961" r="17.008"/><circle cx="2202.52" cy="161.575" r="17.008"/><circle cx="2089.134" cy="161.575" r="17.008"/><circle cx="1975.748" cy="161.575" r="17.008"/><circle cx="1862.362" cy="161.575" r="17.008"/><circle cx="1748.976" cy="161.575" r="17.008"/><circle cx="1635.591" cy="161.575" r="17.008"/><circle cx="1522.205" cy="161.575" r="17.008"/><circle cx="1408.819" cy="161.575" r="17.008"/><circle cx="1295.433" cy="161.575" r="17.008"/><circle cx="1182.047" cy="161.575" r="17.008"/><circle cx="1068.661" cy="161.575" r="17.008"/><circle cx="955.276" cy="161.575" r="17.008"/><circle cx="841.89" cy="161.575" r="17.008"/><circle cx="728.504" cy="161.575" r="17.008"/><circle cx="615.118" cy="161.575" r="17.008"/><circle cx="501.732" cy="161.575" r="17.008"/><circle cx="388.346" cy="161.575" r="17.008"/><circle cx="274.961" cy="161.575" r="17.008"/><circle cx="161.575" cy="161.575" r="17.008"/><circle cx="48.189" cy="161.575" r="17.008"/><circle cx="2202.52" cy="48.189" r="17.008"/><circle cx="2089.134" cy="48.189" r="17.008"/><circle cx="1975.748" cy="48.189" r="17.008"/><circle cx="1862.362" cy="48.189" r="17.008"/><circle cx="1748.976" cy="48.189" r="17.008"/><circle cx="1635.591" cy="48.189" r="17.008"/><circle cx="1522.205" cy="48.189" r="17.008"/><circle cx="1408.819" cy="48.189" r="17.008"/><circle cx="1295.433" cy="48.189" r="17.008"/><circle cx="1182.047" cy="48.189" r="17.008"/><circle cx="1068.661" cy="48.189" r="17.008"/><circle cx="955.276" cy="48.189" r="17.008"/><circle cx="841.89" cy="48.189" r="17.008"/><circle cx="728.504" cy="48.189" r="17.008"/><circle cx="615.118" cy="48.189" r="17.008"/><circle cx="501.732" cy="48.189" r="17.008"/><circle cx="388.346" cy="48.189" r="17.008"/><circle cx="274.961" cy="48.189" r="17.008"/><circle cx="161.575" cy="48.189" r="17.008"/><circle cx="48.189" cy="48.189" r="17.008"/></svg>